<?xml version="1.0" encoding="iso-8859-1"?>
<!-- Generator: Adobe Illustrator 19.0.0, SVG Export Plug-In . SVG Version: 6.00 Build 0)  -->
<svg version="1.1" id="Layer_1" xmlns="http://www.w3.org/2000/svg" xmlns:xlink="http://www.w3.org/1999/xlink" x="0px" y="0px"
	 viewBox="0 0 512 512" style="enable-background:new 0 0 512 512;" xml:space="preserve">
<g>
	<g>
		<circle cx="428.528" cy="372.867" r="16.695"/>
	</g>
</g>
<g>
	<g>
		<circle cx="217.057" cy="372.867" r="16.695"/>
	</g>
</g>
<g>
	<g>
		<path d="M428.524,289.39h-211.47c-18.803,0-36.115,6.324-50.085,16.853V205.915c0-7.571-5.098-14.195-12.412-16.135
			c-7.294-1.934-15.01,1.282-18.782,7.853L2.215,431.363c-6.341,11.126,1.691,24.977,14.499,24.977h66.78
			c27.322,0,51.543-13.251,66.78-33.6c15.237,20.35,39.458,33.6,66.78,33.6h211.47c46.03,0,83.475-37.445,83.475-83.475
			C512,326.835,474.555,289.39,428.524,289.39z M217.054,422.95c-27.618,0-50.085-22.467-50.085-50.085s22.467-50.085,50.085-50.085
			s50.085,22.467,50.085,50.085S244.672,422.95,217.054,422.95z M428.524,422.95c-27.618,0-50.085-22.467-50.085-50.085
			s22.467-50.085,50.085-50.085s50.085,22.467,50.085,50.085S456.142,422.95,428.524,422.95z"/>
	</g>
</g>
<g>
	<g>
		<path d="M428.524,55.659h-100.17c-7.663,0-14.337,5.212-16.195,12.646L281.931,189.22h-14.792v-16.695
			c0-9.222-7.478-16.695-16.695-16.695s-16.695,7.473-16.695,16.695v25.73c-19.927,11.569-33.39,33.091-33.39,57.745v1.333
			c5.468-0.787,11.012-1.333,16.695-1.333h211.47c17.939,0,34.88,4.182,50.085,11.436V105.744
			C478.61,78.126,456.142,55.659,428.524,55.659z M411.829,172.525c0,9.22-7.475,16.695-16.695,16.695h-78.789l25.041-100.17h53.748
			c9.22,0,16.695,7.475,16.695,16.695V172.525z"/>
	</g>
</g>
<g>
</g>
<g>
</g>
<g>
</g>
<g>
</g>
<g>
</g>
<g>
</g>
<g>
</g>
<g>
</g>
<g>
</g>
<g>
</g>
<g>
</g>
<g>
</g>
<g>
</g>
<g>
</g>
<g>
</g>
</svg>
