<?xml version="1.0" encoding="iso-8859-1"?>
<!-- Generator: Adobe Illustrator 19.0.0, SVG Export Plug-In . SVG Version: 6.00 Build 0)  -->
<svg version="1.1" id="Capa_1" xmlns="http://www.w3.org/2000/svg" xmlns:xlink="http://www.w3.org/1999/xlink" x="0px" y="0px"
	 viewBox="0 0 448 448" style="enable-background:new 0 0 448 448;" xml:space="preserve">
<g>
	<g>
		<rect x="80.002" y="255.996" width="32" height="32"/>
	</g>
</g>
<g>
	<g>
		<rect x="144.002" y="192.004" width="32" height="32"/>
	</g>
</g>
<g>
	<g>
		<rect x="208.002" y="192.004" width="32" height="32"/>
	</g>
</g>
<g>
	<g>
		<rect x="144.002" y="255.996" width="32" height="32"/>
	</g>
</g>
<g>
	<g>
		<path d="M336,224c-61.855,0-112,50.143-112,112c0,5.447,0.521,10.761,1.273,16L32,352V160h288V192h32V96c0-17.674-14.327-32-32-32
			h-32V16c0-8.837-7.163-16-16-16s-16,7.163-16,16v96c-17.673,0-32-14.327-32-32V64h-96V16c0-8.837-7.163-16-16-16
			c-8.837,0-16,7.163-16,16v96c-17.673,0-32-14.327-32-32V64H32C14.4,64,0,78.4,0,96v256c0,17.6,14.4,32,32,32h202.924
			C252.914,421.804,291.348,448,336,448c61.857,0,112-50.145,112-112C448,274.144,397.857,224,336,224z M336,416
			c-44.112,0-80-35.888-80-80s35.888-80,80-80s80,35.888,80,80S380.112,416,336,416z"/>
	</g>
</g>
<g>
	<g>
		<circle cx="335.986" cy="279.996" r="8"/>
	</g>
</g>
<g>
	<g>
		<circle cx="335.986" cy="392.012" r="8"/>
	</g>
</g>
<g>
	<g>
		<circle cx="279.986" cy="336.012" r="8"/>
	</g>
</g>
<g>
	<g>
		<circle cx="391.986" cy="336.012" r="8"/>
	</g>
</g>
<g>
	<g>
		<circle cx="296.386" cy="296.396" r="8"/>
	</g>
</g>
<g>
	<g>
		<circle cx="375.586" cy="375.612" r="8"/>
	</g>
</g>
<g>
	<g>
		<circle cx="296.386" cy="375.612" r="8"/>
	</g>
</g>
<g>
	<g>
		<path d="M376.416,291.2l-49.2,29.023c-1.344,0.769-2.608,1.712-3.76,2.864c-7.025,7.023-7.025,18.432,0,25.456
			c7.04,7.04,18.432,7.023,25.456,0c1.151-1.152,2.111-2.416,2.88-3.744l29.008-49.216
			C382.479,292.735,379.264,289.52,376.416,291.2z"/>
	</g>
</g>
<g>
</g>
<g>
</g>
<g>
</g>
<g>
</g>
<g>
</g>
<g>
</g>
<g>
</g>
<g>
</g>
<g>
</g>
<g>
</g>
<g>
</g>
<g>
</g>
<g>
</g>
<g>
</g>
<g>
</g>
</svg>
