<svg id="drone" xmlns="http://www.w3.org/2000/svg" width="160" height="160" viewBox="0 0 160 160"><title>drone</title><path d="M131.66,56.68a28.28,28.28,0,0,1-9.38-1.6L109.63,67.74a32.39,32.39,0,0,1,0,24.52l12.45,12.45a28.35,28.35,0,1,1-17.26,17.51L92.39,109.77a32.38,32.38,0,0,1-24.94.14l-12.3,12.3a28.32,28.32,0,1,1-17.26-17.5L50,92.61a32.41,32.41,0,0,1,0-25.22L37.71,55.09A28.34,28.34,0,1,1,55.09,37.7L67.52,50.13a32.39,32.39,0,0,1,24.81.14l12.58-12.58a28.34,28.34,0,1,1,26.75,19Zm0,95.23a20.52,20.52,0,1,0-20.52-20.52A20.52,20.52,0,0,0,131.66,151.91Zm-103.32-41A20.52,20.52,0,1,0,48.86,131.4,20.52,20.52,0,0,0,28.34,110.88Zm0-103.06A20.52,20.52,0,1,0,48.86,28.34,20.52,20.52,0,0,0,28.34,7.83ZM78.95,65.28A15.19,15.19,0,1,0,94.14,80.47,15.19,15.19,0,0,0,78.95,65.28ZM131.66,7.83a20.52,20.52,0,1,0,20.52,20.52A20.52,20.52,0,0,0,131.66,7.83Z" fill-rule="evenodd"/></svg>