<svg 
 xmlns="http://www.w3.org/2000/svg"
 xmlns:xlink="http://www.w3.org/1999/xlink"
 width="849" height="363" viewBox="0 0 849 363"><title>scrbblr</title>
<path fill-rule="evenodd"  opacity="0.729"
 d="M93.087,97.856 C93.087,82.041 105.899,69.220 121.703,69.220 C137.507,69.220 150.319,82.041 150.319,97.856 C150.319,113.671 137.507,126.491 121.703,126.491 C105.899,126.491 93.087,113.671 93.087,97.856 ZM176.349,128.266 L159.014,110.918 C160.444,106.827 161.231,102.434 161.231,97.854 C161.231,76.008 143.533,58.298 121.701,58.298 C99.870,58.298 82.172,76.008 82.172,97.854 C82.172,119.701 99.870,137.411 121.701,137.411 C126.284,137.411 130.681,136.622 134.774,135.186 L151.938,152.362 C150.260,156.306 149.130,160.540 148.638,164.966 C140.567,168.138 131.779,169.881 122.584,169.881 C83.205,169.881 51.283,137.937 51.283,98.531 C51.283,59.125 83.205,27.181 122.584,27.181 C161.962,27.181 193.885,59.125 193.885,98.531 C193.885,107.945 192.059,116.932 188.748,125.161 C184.403,125.609 180.240,126.672 176.349,128.266 Z"/>
<path fill-rule="evenodd"  fill-opacity="0.502"
 d="M294.433,241.703 C294.433,257.518 281.621,270.338 265.817,270.338 C250.013,270.338 237.202,257.518 237.202,241.703 C237.202,225.888 250.013,213.067 265.817,213.067 C281.621,213.067 294.433,225.888 294.433,241.703 ZM265.231,327.191 C218.828,327.191 181.210,289.547 181.210,243.112 C181.210,233.070 182.973,223.440 186.200,214.512 C188.548,214.891 190.954,215.097 193.409,215.097 C199.668,215.097 205.629,213.819 211.045,211.510 L228.417,228.894 C227.043,232.912 226.286,237.217 226.286,241.701 C226.286,263.548 243.984,281.258 265.816,281.258 C287.647,281.258 305.345,263.548 305.345,241.701 C305.345,219.855 287.647,202.145 265.816,202.145 C261.138,202.145 256.652,202.963 252.487,204.456 L235.119,187.076 C237.272,181.810 238.462,176.048 238.462,170.007 C238.462,167.815 238.300,165.660 237.997,163.551 C246.538,160.624 255.699,159.033 265.231,159.033 C311.635,159.033 349.252,196.676 349.252,243.112 C349.252,289.547 311.635,327.191 265.231,327.191 Z"/>
<path fill-rule="evenodd"  fill-opacity="0.639"
 d="M121.703,270.338 C105.899,270.338 93.087,257.518 93.087,241.703 C93.087,225.888 105.899,213.067 121.703,213.067 C137.507,213.067 150.319,225.888 150.319,241.703 C150.319,257.518 137.507,270.338 121.703,270.338 ZM121.701,137.411 C126.284,137.411 130.681,136.622 134.774,135.186 L151.938,152.362 C149.633,157.782 148.356,163.745 148.356,170.007 C148.356,176.235 149.618,182.168 151.899,187.564 L135.022,204.453 C130.859,202.962 126.376,202.145 121.701,202.145 C99.870,202.145 82.172,219.855 82.172,241.701 C82.172,263.548 99.870,281.258 121.701,281.258 C143.533,281.258 161.231,263.548 161.231,241.701 C161.231,237.214 160.473,232.906 159.098,228.885 L176.259,211.712 C181.546,213.892 187.336,215.097 193.409,215.097 C199.668,215.097 205.629,213.819 211.045,211.510 L228.417,228.894 C227.043,232.912 226.286,237.217 226.286,241.701 C226.286,253.641 231.580,264.337 239.938,271.590 C226.479,324.087 178.876,362.889 122.217,362.889 C55.099,362.889 0.689,308.441 0.689,241.277 C0.689,184.676 39.332,137.108 91.656,123.545 C98.907,132.028 109.673,137.411 121.701,137.411 ZM242.546,258.357 C239.186,253.663 237.202,247.917 237.202,241.703 C237.202,235.427 239.224,229.628 242.646,224.909 C243.365,230.263 243.745,235.725 243.745,241.277 C243.745,247.075 243.330,252.775 242.546,258.357 ZM104.748,120.921 C110.454,120.099 116.284,119.665 122.217,119.665 C127.852,119.665 133.395,120.058 138.827,120.801 C134.052,124.375 128.124,126.491 121.703,126.491 C115.356,126.491 109.494,124.420 104.748,120.921 Z"/>
<path fill-rule="evenodd"  fill-opacity="0.302"
 d="M265.817,69.220 C281.621,69.220 294.433,82.041 294.433,97.856 C294.433,113.671 281.621,126.491 265.817,126.491 C250.013,126.491 237.202,113.671 237.202,97.856 C237.202,82.041 250.013,69.220 265.817,69.220 ZM265.231,196.807 C257.261,196.807 249.514,195.849 242.094,194.056 L235.119,187.076 C237.272,181.810 238.462,176.048 238.462,170.007 C238.462,163.932 237.259,158.138 235.082,152.848 L252.734,135.184 C256.830,136.621 261.230,137.411 265.816,137.411 C287.647,137.411 305.345,119.701 305.345,97.854 C305.345,76.008 287.647,58.298 265.816,58.298 C243.984,58.298 226.286,76.008 226.286,97.854 C226.286,102.431 227.072,106.821 228.501,110.910 L210.957,128.466 C205.564,126.181 199.634,124.917 193.409,124.917 C187.371,124.917 181.612,126.109 176.349,128.266 L169.772,121.684 C167.980,114.259 167.024,106.507 167.024,98.531 C167.024,44.255 210.993,0.255 265.231,0.255 C319.470,0.255 363.439,44.255 363.439,98.531 C363.439,152.807 319.470,196.807 265.231,196.807 Z"/>
<path fill-rule="evenodd"
 d="M842.523,148.387 C824.555,148.387 815.376,160.895 815.376,178.876 L815.376,222.654 C815.376,226.172 812.642,228.908 809.126,228.908 C805.611,228.908 802.876,226.172 802.876,222.654 L802.876,143.306 C802.876,139.788 805.611,137.052 809.126,137.052 C812.642,137.052 815.376,139.788 815.376,143.306 L815.376,151.905 C819.282,142.915 829.047,136.270 842.523,136.270 C845.843,136.270 848.578,139.006 848.578,142.328 C848.578,145.651 845.843,148.387 842.523,148.387 ZM788.232,228.908 C775.146,228.908 767.920,221.090 767.920,206.042 L767.920,94.446 C767.920,91.123 770.850,88.192 774.170,88.192 C777.685,88.192 780.420,91.123 780.420,94.446 L780.420,206.042 C780.420,213.859 782.959,217.182 788.232,217.182 C791.357,217.182 794.091,219.722 794.091,223.045 C794.091,226.367 791.357,228.908 788.232,228.908 ZM718.123,229.885 C695.859,229.885 679.844,217.182 679.844,191.384 L679.844,94.446 C679.844,90.928 682.578,88.192 686.093,88.192 C689.609,88.192 692.343,90.928 692.343,94.446 L692.343,148.582 C696.835,142.328 706.405,135.879 718.905,135.879 C744.099,135.879 758.161,150.732 758.161,182.784 C758.161,214.836 743.318,229.885 718.123,229.885 ZM718.123,147.214 C699.765,147.214 692.343,164.413 692.343,164.413 L692.343,191.384 C692.343,209.950 703.085,218.550 718.123,218.550 C736.091,218.550 745.661,207.214 745.661,182.784 C745.661,158.745 735.896,147.214 718.123,147.214 ZM630.047,229.885 C607.782,229.885 591.767,217.182 591.767,191.384 L591.767,94.446 C591.767,90.928 594.502,88.192 598.017,88.192 C601.533,88.192 604.267,90.928 604.267,94.446 L604.267,148.582 C608.759,142.328 618.329,135.879 630.828,135.879 C656.022,135.879 670.084,150.732 670.084,182.784 C670.084,214.836 655.241,229.885 630.047,229.885 ZM630.047,147.214 C611.688,147.214 604.267,164.413 604.267,164.413 L604.267,191.384 C604.267,209.950 615.009,218.550 630.047,218.550 C648.015,218.550 657.585,207.214 657.585,182.784 C657.585,158.745 647.820,147.214 630.047,147.214 ZM578.882,148.387 C560.914,148.387 551.735,160.895 551.735,178.876 L551.735,222.654 C551.735,226.172 549.001,228.908 545.485,228.908 C541.970,228.908 539.235,226.172 539.235,222.654 L539.235,143.306 C539.235,139.788 541.970,137.052 545.485,137.052 C549.001,137.052 551.735,139.788 551.735,143.306 L551.735,151.905 C555.641,142.915 565.406,136.270 578.882,136.270 C582.202,136.270 584.937,139.006 584.937,142.328 C584.937,145.651 582.202,148.387 578.882,148.387 ZM495.298,218.550 C506.625,218.550 513.461,213.468 517.953,210.146 C519.320,209.169 520.297,208.778 521.664,208.778 C524.789,208.778 527.328,211.318 527.328,214.445 C527.328,216.204 526.742,217.572 524.789,219.331 C520.492,222.849 511.117,229.885 495.298,229.885 C470.104,229.885 455.065,214.836 455.065,182.784 C455.065,150.732 470.104,135.879 495.298,135.879 C512.680,135.879 522.250,145.065 525.375,149.364 C526.351,150.732 526.742,151.710 526.742,153.078 C526.742,156.400 524.203,158.745 521.078,158.745 C519.125,158.745 517.758,157.964 516.391,156.400 C513.461,153.078 508.188,147.214 495.298,147.214 C477.330,147.214 467.760,158.745 467.760,182.784 C467.760,207.214 477.330,218.550 495.298,218.550 ZM414.447,229.690 C398.432,229.690 386.128,222.068 381.050,215.618 C380.074,214.250 379.683,213.273 379.683,211.905 C379.683,208.778 382.222,206.237 385.347,206.237 C386.519,206.237 388.081,206.628 389.643,208.191 C395.698,214.250 403.510,217.768 414.447,217.768 C425.579,217.768 435.149,214.055 435.149,203.892 C435.149,183.761 383.784,191.774 383.784,159.722 C383.784,143.501 397.065,136.074 413.666,136.074 C426.947,136.074 437.298,140.569 443.352,148.582 C443.938,149.364 444.719,150.537 444.719,152.296 C444.719,155.423 442.180,157.964 439.055,157.964 C438.079,157.964 436.516,157.768 434.954,156.205 C429.681,151.123 423.822,147.996 413.666,147.996 C404.877,147.996 396.284,150.732 396.284,159.722 C396.284,180.244 447.649,172.621 447.649,203.892 C447.649,221.677 433.001,229.690 414.447,229.690 Z"/>
<path fill-rule="evenodd"
 d="M192.281,149.406 C203.983,149.406 213.469,158.899 213.469,170.609 C213.469,182.320 203.983,191.813 192.281,191.813 C180.580,191.813 171.094,182.320 171.094,170.609 C171.094,158.899 180.580,149.406 192.281,149.406 Z"/>
</svg>