<svg 
 xmlns="http://www.w3.org/2000/svg"
 xmlns:xlink="http://www.w3.org/1999/xlink"
 width="853" height="209" viewBox="0 0 853 209"><title>scrbblr</title>
<path fill-rule="evenodd"
 d="M844.560,82.595 C820.127,82.595 807.645,99.604 807.645,124.054 L807.645,183.584 C807.645,188.367 803.927,192.088 799.147,192.088 C794.367,192.088 790.648,188.367 790.648,183.584 L790.648,75.685 C790.648,70.902 794.367,67.181 799.147,67.181 C803.927,67.181 807.645,70.902 807.645,75.685 L807.645,87.379 C812.957,75.154 826.236,66.118 844.560,66.118 C849.075,66.118 852.793,69.839 852.793,74.357 C852.793,78.874 849.075,82.595 844.560,82.595 ZM770.735,192.088 C752.941,192.088 743.115,181.458 743.115,160.994 L743.115,9.245 C743.115,4.727 747.098,0.741 751.613,0.741 C756.393,0.741 760.112,4.727 760.112,9.245 L760.112,160.994 C760.112,171.625 763.564,176.142 770.735,176.142 C774.984,176.142 778.702,179.597 778.702,184.115 C778.702,188.633 774.984,192.088 770.735,192.088 ZM675.400,193.417 C645.125,193.417 623.347,176.142 623.347,141.062 L623.347,9.245 C623.347,4.462 627.066,0.741 631.846,0.741 C636.626,0.741 640.344,4.462 640.344,9.245 L640.344,82.861 C646.453,74.357 659.466,65.586 676.463,65.586 C710.722,65.586 729.844,85.784 729.844,129.369 C729.844,172.953 709.660,193.417 675.400,193.417 ZM675.400,81.001 C650.436,81.001 640.344,104.387 640.344,104.387 L640.344,141.062 C640.344,166.309 654.951,178.003 675.400,178.003 C699.833,178.003 712.847,162.589 712.847,129.369 C712.847,96.680 699.568,81.001 675.400,81.001 ZM555.633,193.417 C525.358,193.417 503.580,176.142 503.580,141.062 L503.580,9.245 C503.580,4.462 507.298,0.741 512.079,0.741 C516.859,0.741 520.577,4.462 520.577,9.245 L520.577,82.861 C526.685,74.357 539.699,65.586 556.696,65.586 C590.955,65.586 610.076,85.784 610.076,129.369 C610.076,172.953 589.893,193.417 555.633,193.417 ZM555.633,81.001 C530.669,81.001 520.577,104.387 520.577,104.387 L520.577,141.062 C520.577,166.309 535.184,178.003 555.633,178.003 C580.066,178.003 593.080,162.589 593.080,129.369 C593.080,96.680 579.801,81.001 555.633,81.001 ZM486.059,82.595 C461.626,82.595 449.144,99.604 449.144,124.054 L449.144,183.584 C449.144,188.367 445.426,192.088 440.645,192.088 C435.865,192.088 432.147,188.367 432.147,183.584 L432.147,75.685 C432.147,70.902 435.865,67.181 440.645,67.181 C445.426,67.181 449.144,70.902 449.144,75.685 L449.144,87.379 C454.455,75.154 467.734,66.118 486.059,66.118 C490.574,66.118 494.292,69.839 494.292,74.357 C494.292,78.874 490.574,82.595 486.059,82.595 ZM372.400,178.003 C387.804,178.003 397.099,171.093 403.207,166.575 C405.066,165.246 406.394,164.715 408.253,164.715 C412.502,164.715 415.955,168.170 415.955,172.422 C415.955,174.814 415.158,176.674 412.502,179.066 C406.659,183.850 393.912,193.417 372.400,193.417 C338.141,193.417 317.691,172.953 317.691,129.369 C317.691,85.784 338.141,65.586 372.400,65.586 C396.036,65.586 409.050,78.077 413.299,83.924 C414.627,85.784 415.158,87.113 415.158,88.973 C415.158,93.491 411.705,96.680 407.456,96.680 C404.800,96.680 402.941,95.617 401.082,93.491 C397.099,88.973 389.928,81.001 372.400,81.001 C347.967,81.001 334.954,96.680 334.954,129.369 C334.954,162.589 347.967,178.003 372.400,178.003 ZM262.459,193.151 C240.681,193.151 223.950,182.786 217.045,174.016 C215.717,172.156 215.186,170.827 215.186,168.967 C215.186,164.715 218.638,161.260 222.888,161.260 C224.481,161.260 226.606,161.791 228.730,163.918 C236.963,172.156 247.586,176.940 262.459,176.940 C277.596,176.940 290.610,171.890 290.610,158.071 C290.610,130.698 220.763,141.594 220.763,98.009 C220.763,75.951 238.822,65.852 261.396,65.852 C279.455,65.852 293.531,71.965 301.764,82.861 C302.561,83.924 303.623,85.518 303.623,87.910 C303.623,92.162 300.170,95.617 295.921,95.617 C294.593,95.617 292.469,95.352 290.344,93.225 C283.174,86.316 275.206,82.064 261.396,82.064 C249.445,82.064 237.760,85.784 237.760,98.009 C237.760,125.914 307.607,115.549 307.607,158.071 C307.607,182.255 287.688,193.151 262.459,193.151 ZM81.570,208.253 C36.980,208.253 0.833,172.106 0.833,127.516 C0.833,82.926 36.980,46.779 81.570,46.779 C126.159,46.779 162.306,82.926 162.306,127.516 C162.306,172.106 126.159,208.253 81.570,208.253 ZM81.570,94.931 C63.574,94.931 48.985,109.520 48.985,127.516 C48.985,145.512 63.574,160.101 81.570,160.101 C99.566,160.101 114.154,145.512 114.154,127.516 C114.154,109.520 99.566,94.931 81.570,94.931 Z"/>
</svg>