<svg 
 xmlns="http://www.w3.org/2000/svg"
 xmlns:xlink="http://www.w3.org/1999/xlink"
 viewBox="0 0 500 500" x="250" y="250" width="500" height="500">
<path fill-rule="evenodd"
 d="M436.857,183.139 L482.787,156.520 C492.875,180.880 498.616,206.977 500.011,234.810 L447.817,234.810 C446.773,218.459 443.120,201.235 436.857,183.139 L436.857,183.139 ZM330.904,68.835 C313.158,61.186 295.062,56.138 276.623,53.699 L276.623,0.984 C304.807,4.115 331.597,11.773 357.001,23.949 L330.904,68.835 ZM375.268,96.498 L401.887,51.089 C424.852,68.493 443.642,88.326 458.256,110.590 L412.848,136.687 C402.058,121.029 389.532,107.638 375.268,96.498 L375.268,96.498 ZM340.299,427.404 C367.439,413.492 390.315,394.180 408.933,369.470 C427.543,344.767 439.638,317.276 445.208,287.004 L497.923,287.004 C492.002,326.671 477.388,362.864 454.081,395.566 C430.765,428.277 401.536,453.844 366.396,472.291 C330.203,491.423 291.580,500.997 250.526,500.997 C205.289,500.997 163.184,489.515 124.218,466.549 C86.288,444.628 56.366,414.707 34.445,376.777 C11.480,337.811 -0.003,295.706 -0.003,250.468 C-0.003,208.021 10.085,168.182 30.270,130.945 C49.753,95.111 76.371,65.704 110.126,42.739 C144.573,19.080 182.675,5.159 224.429,0.984 L224.429,53.699 C192.412,57.875 163.273,69.276 137.005,87.886 C110.729,106.504 90.113,129.730 75.156,157.564 C59.841,186.450 52.191,217.415 52.191,250.468 C52.191,286.311 61.235,319.543 79.332,350.158 C96.727,380.088 120.385,403.917 150.315,421.663 C181.280,439.751 214.684,448.804 250.526,448.804 C282.185,448.804 312.114,441.668 340.299,427.404 L340.299,427.404 Z"/>
</svg>